<?xml version="1.0" encoding="UTF-8"?>
<svg id="Layer_1" xmlns="http://www.w3.org/2000/svg" version="1.1" viewBox="0 0 205.49 205.49">
  <!-- Generator: Adobe Illustrator 29.7.1, SVG Export Plug-In . SVG Version: 2.1.1 Build 8)  -->
  <defs>
    <style>
      .st0 {
        fill: #002a4a;
      }

      .st1 {
        fill: #01294a;
      }
    </style>
  </defs>
  <path class="st1" d="M155.03,28.99h-14.93v-7.32c0-2.88-2.33-5.21-5.21-5.21h-.27c-2.88,0-5.21,2.33-5.21,5.21v7.32h-48.62v-7.32c0-2.88-2.33-5.21-5.21-5.21h-.27c-2.88,0-5.21,2.33-5.21,5.21v7.32h-14.97c-9.79,0-17.73,7.94-17.73,17.73v115.51c0,9.79,7.94,17.73,17.73,17.73h99.92c9.79,0,17.73-7.94,17.73-17.73V46.71c0-9.79-7.94-17.73-17.73-17.73ZM162.73,163.17c0,3.47-2.81,6.28-6.28,6.28H54.01c-3.47,0-6.28-2.81-6.28-6.28v-93.38h115.01v93.38ZM162.73,59.37H47.73v-13.92c0-3.47,2.81-6.28,6.28-6.28h16.08v7.27c0,2.88,2.33,5.21,5.21,5.21h.27c2.88,0,5.21-2.33,5.21-5.21v-7.27h48.62v7.27c0,2.88,2.33,5.21,5.21,5.21h.27c2.88,0,5.21-2.33,5.21-5.21v-7.27h16.35c3.47,0,6.28,2.81,6.28,6.28v13.92Z"/>
  <path class="st0" d="M105.15,83.38c-21.26,0-38.49,17.03-38.49,38.03s17.23,38.03,38.49,38.03,38.49-17.03,38.49-38.03-17.23-38.03-38.49-38.03ZM104.97,150.02c-15.94,0-28.86-12.83-28.86-28.66s12.92-28.66,28.86-28.66,28.86,12.83,28.86,28.66-12.92,28.66-28.86,28.66Z"/>
  <path class="st0" d="M101.02,126.05l17-16.86s2.84-1.81,5.4.75.99,5.35.99,5.35l-21.42,21.32s-2.42,2.14-4.56,0c-2.14-2.14-13.08-13.08-13.08-13.08,0,0-1.57-2.18,1.53-5.28,2.56-2.56,5.07-1.27,5.07-1.27l9.06,9.06Z"/>
</svg>