<?xml version="1.0" encoding="UTF-8"?>
<svg id="Layer_1" xmlns="http://www.w3.org/2000/svg" version="1.1" viewBox="0 0 205.49 205.49">
  <!-- Generator: Adobe Illustrator 29.7.1, SVG Export Plug-In . SVG Version: 2.1.1 Build 8)  -->
  <defs>
    <style>
      .st0 {
        fill: #231f20;
      }

      .st1 {
        fill: #f8971d;
      }

      .st2 {
        fill: #fff;
      }

      .st3 {
        fill: #0079c1;
        fill-rule: evenodd;
      }
    </style>
  </defs>
  <path class="st0" d="M23.17,23.23v79.34c0,43.8,35.53,79.33,79.33,79.33s79.34-35.53,79.34-79.33V23.23H23.17Z"/>
  <path class="st2" d="M31.11,31.17v71.41c0,39.36,32.03,71.39,71.4,71.39s71.4-32.03,71.4-71.39V31.17H31.11Z"/>
  <path class="st1" d="M39.05,39.1v63.47c0,34.99,28.46,63.48,63.46,63.48s63.47-28.48,63.47-63.48v-63.47H39.05Z"/>
  <path class="st2" d="M142.18,102.57c0,21.9-17.76,39.67-39.67,39.67s-39.67-17.76-39.67-39.67,17.76-39.67,39.67-39.67,39.67,17.76,39.67,39.67Z"/>
  <path class="st3" d="M111.22,82.48c-2.36,1.98-5.39,3.17-8.71,3.17-3.02,0-6.34-1.5-8.59-3.17,0,0-7.24-6.85-9.28-8.92-12.91-12.93-34.38-34.46-34.38-34.46h-11.21v11.22l35.44,35.44,11.83,11.93c5.08,4.76,8.26,11.53,8.26,19.05v48.77c2.61.33,5.25.53,7.94.53s5.33-.2,7.93-.53v-48.77c0-7.52,3.18-14.3,8.27-19.05l47.27-47.37v-11.22h-11.22s-21.41,21.48-34.37,34.46c-1.92,1.94-6.47,6.51-7.03,7.06l-2.14,1.86Z"/>
</svg>