<?xml version="1.0" encoding="UTF-8"?>
<svg id="Layer_1" xmlns="http://www.w3.org/2000/svg" version="1.1" viewBox="0 0 1074.74 405.33">
  <!-- Generator: Adobe Illustrator 29.7.1, SVG Export Plug-In . SVG Version: 2.1.1 Build 8)  -->
  <defs>
    <style>
      .st0 {
        fill: #002a4a;
      }
    </style>
  </defs>
  <path class="st0" d="M61.11,251.15c0,15.78.17,21.83,1.34,29.21H26.35c1.18-7.39,1.51-14.1,1.51-28.71v-86.97c0-11.08-.34-16.62-1.34-24.51,6.88.34,11.58.5,24.51.5h48.52c14.77,0,20.31-.17,28.2-1.18v31.9c-7.39-.84-13.93-1.18-28.04-1.18h-38.61v27.53h31.56c13.1,0,19.47-.34,26.86-1.18v31.06c-7.39-.84-14.1-1.18-26.86-1.18h-31.56v24.68Z"/>
  <path class="st0" d="M175.43,140.68c-1.01,7.05-1.34,13.93-1.34,25.35v88.98c0,10.07.34,16.45,1.34,25.35h-35.09c1.01-7.56,1.34-13.26,1.34-25.35v-88.98c0-11.92-.34-18.97-1.34-25.35h35.09Z"/>
  <path class="st0" d="M298.65,177.95c-1.01,7.89-1.34,14.94-1.34,25.18v51.88c0,11.58.34,18.47,1.34,25.18h-33.41v-7.22c0-.84,0-3.36.17-4.53-11.08,10.41-20.65,14.44-34.92,14.44-11.25,0-20.31-3.19-26.69-9.4-6.72-6.72-9.57-14.94-9.57-28.2v-42.14c0-9.74-.5-18.13-1.34-25.18h34.92c-1.01,8.06-1.34,15.11-1.34,25.18v34.42c0,6.88.67,9.91,2.69,12.59,2.35,3.02,6.04,4.7,10.91,4.7,9.23,0,18.64-6.55,25.18-17.29v-34.42c0-9.4-.34-16.45-1.34-25.18h34.75Z"/>
  <path class="st0" d="M385.61,280.36c-2.18-5.04-5.37-10.58-8.39-15.28l-10.41-16.12-10.58,16.62c-2.69,4.03-5.54,9.4-8.06,14.77h-39.29c4.36-5.04,9.23-11.25,12.42-15.78l27.2-38.28-24.01-33.58c-.84-1.18-4.7-6.21-11.42-14.77l24.4,13.37c13.96,7.67,28.39,15.18,28.39,15.18l9.33-14.28c3.69-5.54,56.72-83.72,58.4-88.09l.33,61.73c-3.36,4.03-10.93,9.97-24.82,26.86l-23.84,33.58,26.86,37.94c3.36,4.7,6.88,9.23,12.42,16.12h-38.95Z"/>
  <path class="st0" d="M470.05,177.95c-1.01,6.88-1.34,13.6-1.34,25.35v51.71c0,9.07.5,18.13,1.34,25.35h-35.09c1.01-8.23,1.34-14.61,1.34-25.35v-51.71c0-10.91-.34-17.8-1.34-25.35h35.09ZM469.55,140.68v25.18h-34.08v-25.18h34.08Z"/>
  <path class="st0" d="M483.48,228.99c0-33.58,21.49-54.9,55.4-54.9s55.4,21.32,55.4,54.56-22.16,55.57-55.57,55.57-55.24-21.49-55.24-55.24ZM515.54,228.82c0,18.64,8.73,29.88,23.34,29.88s23-10.91,23-29.55-8.56-29.88-22.83-29.88-23.5,11.08-23.5,29.55Z"/>
  <path class="st0" d="M750.07,280.36c-1.01-5.37-3.02-12.26-8.23-26.19-5.37-14.61-7.39-18.47-11.58-22.16-3.52-3.19-7.72-4.53-13.09-4.53h-17.13v27.53c0,11.42.34,17.63,1.34,25.35h-36.1c1.01-7.72,1.34-12.76,1.34-25.18v-90.32c0-10.41-.33-16.62-1.34-24.68,7.39.34,13.6.5,25.02.5h43.65c27.2,0,42.98,14.1,42.98,38.28,0,11.92-3.36,21.32-9.91,27.53-4.2,3.86-7.72,5.71-15.95,8.39,8.56,2.69,12.42,6.55,17.8,18.47,2.52,5.37,4.87,11.08,12.42,29.21,1.85,4.7,3.86,8.9,8.06,17.8h-39.29ZM726.23,198.77c9.91,0,15.95-6.04,15.95-15.61s-5.37-14.27-15.78-14.27h-26.36v29.88h26.19Z"/>
  <path class="st0" d="M834,234.86c.67,6.04,1.85,9.07,4.36,12.42,4.03,5.04,11.08,7.89,19.64,7.89,12.93,0,20.65-5.71,20.65-15.11,0-5.21-2.69-9.74-7.05-11.75-3.53-1.68-7.72-2.85-25.18-6.88-15.45-3.36-20.82-5.37-27.03-9.74-10.58-7.39-16.28-18.64-16.28-32.23,0-25.85,20.82-42.14,53.89-42.14,21.32,0,37.61,6.55,46.67,19.14,4.2,5.54,6.21,10.58,8.39,20.15l-35.59,3.86c-2.01-10.91-8.06-15.45-20.82-15.45-10.24,0-17.8,5.54-17.8,13.26,0,4.7,2.52,8.23,7.89,10.74q3.36,1.51,23.17,5.54c12.76,2.69,20.82,5.54,27.2,9.57,12.09,7.55,18.13,18.8,18.13,34.25,0,12.59-4.03,23.34-11.75,30.89-9.74,9.4-24.51,14.27-44.15,14.27-14.27,0-28.37-3.02-37.44-8.23-8.39-4.7-14.61-11.92-18.13-21.49-1.68-4.03-2.52-7.89-3.69-15.61l34.92-3.36Z"/>
  <path class="st0" d="M989.96,239.56q1.34,4.53,3.19,11.58c2.01-7.39,2.35-8.39,3.19-11.58l24.34-80.75c2.18-7.72,3.36-12.42,3.86-18.13h39.45c-2.35,5.04-3.86,8.9-8.06,20.48l-35.59,101.07c-2.85,8.23-4.53,13.93-5.37,18.13h-43.65c-.84-4.37-2.52-10.07-5.37-18.13l-35.76-101.07c-3.36-9.74-5.04-13.93-7.89-20.48h39.29c.67,5.37,2.18,11.92,4.03,18.13l24.34,80.75Z"/>
</svg>