<?xml version="1.0" encoding="UTF-8"?>
<svg id="Layer_1" xmlns="http://www.w3.org/2000/svg" version="1.1" viewBox="0 0 792 227.5">
  <!-- Generator: Adobe Illustrator 29.7.1, SVG Export Plug-In . SVG Version: 2.1.1 Build 8)  -->
  <defs>
    <style>
      .st0 {
        fill: none;
      }

      .st1, .st2 {
        fill: #231f20;
      }

      .st3 {
        fill: #f8971d;
      }

      .st4 {
        fill: #fff;
      }

      .st5 {
        fill: #0079c1;
      }

      .st5, .st2 {
        fill-rule: evenodd;
      }
    </style>
  </defs>
  <rect class="st0" x="-45.05" y="-46.52" width="883.46" height="316.48"/>
  <path class="st2" d="M319.98,98.92c0,8.82-1.72,15.72-6.02,20.24-4.3,4.73-13.56,7.32-27.55,7.53-.87,0-1.94,0-3.01.21h-9.69c-12.92,0-23.45-.65-31.85-2.15-8.18-1.5-13.77-6.24-16.35-13.99-.43-1.51-.86-3.22-1.29-5.16-.22-1.73-.43-3.66-.43-5.81v-55.95h22.38v55.95c0,1.07,0,2.14.22,3.01.21,1.06.43,1.93.65,2.8,1.07,3.44,3.44,5.59,7.1,6.66,3.44.86,8.39,1.51,14.42,1.51h7.74c7.32,0,12.91-.86,16.58-2.14,3.65-1.3,5.58-4.75,5.58-10.56l-.21-1.94v-55.29h21.84l-.1,55.08Z"/>
  <polygon class="st2" points="650.73 43.62 633.08 43.62 603.38 113.12 570.67 43.62 547.65 43.62 586.6 126.47 620.39 126.47 656.1 43.62 650.73 43.62"/>
  <path class="st2" d="M715.06,43.62h-32.92l-31.41,70.58-5.6,12.27h23.23l6.9-15.93h50.35l7.75,15.93h22.81l-41.1-82.85ZM700.22,98.72h-20.01l19.15-42.82.87,1.93,20.01,40.89h-20.01Z"/>
  <polygon class="st2" points="460.94 126.47 424.13 126.47 373.35 57.18 372.7 57.18 372.7 126.47 351.4 126.47 351.4 43.62 388.2 43.62 438.98 112.91 439.41 112.91 439.62 43.62 460.94 43.62 460.94 126.47 460.94 126.47"/>
  <rect class="st1" x="496.65" y="43.62" width="22.37" height="82.85"/>
  <path class="st2" d="M755.73,168.64c-.86-1.49-2.37-2.57-4.73-2.8-1.29-.21-3.01-.21-5.16-.21h-1.08c-3.65,0-6.02.21-7.1.65-1.51.65-2.37,1.28-2.81,1.93-.42.65-.64,1.52-.64,2.58h6.24c0-.43.22-.86.65-1.06.43-.23,1.5-.23,3.65-.23h2.15c1.08,0,1.95.23,2.16.44.64.43.86,1.08.86,2.37v1.93c-.22-.42-.43-.64-.43-.85-.43-.44-1.08-.86-1.73-1.08-.64,0-1.71-.21-3.01-.21h-.85c-3.23,0-5.38.21-6.68.43-1.29.22-2.16.64-2.79,1.51-.65.64-.87,1.93-.87,3.65,0,1.29,0,2.38.43,3.02.64,1.07,1.72,1.94,3.44,2.14,1.09.22,2.8.22,4.74.22h3.66c1.72-.22,2.8-.86,3.44-1.5.22-.42.43-1.08.86-1.72v3h6.03v-11.61c0-.87-.21-1.73-.43-2.59ZM748.86,178.97c-.64.23-1.95.44-3.88.44h-.22c-1.72,0-2.8-.21-3.23-.21-1.29-.23-1.94-.87-1.94-1.73s.43-1.51,1.29-1.72c.64-.22,1.93-.22,3.65-.22h.22c1.73,0,2.8,0,3.45.22,1.07.21,1.71.64,1.71,1.72,0,.86-.43,1.29-1.07,1.5Z"/>
  <polygon class="st2" points="684.09 182.84 684.09 158.74 690.33 158.74 690.33 182.84 684.09 182.84 684.09 182.84"/>
  <polygon class="st2" points="695.48 182.84 695.48 166.06 701.73 166.06 701.73 182.84 695.48 182.84 695.48 182.84"/>
  <polygon class="st2" points="695.48 163.27 695.48 158.74 701.73 158.74 701.73 163.27 695.48 163.27 695.48 163.27"/>
  <path class="st2" d="M729.48,172.3h-6.24c-.22-.86-.65-1.5-1.72-1.94-.64,0-1.93-.22-3.65-.22-1.94,0-3.23.22-3.87.44-.64.43-1.08.85-1.29,1.5,0,.65-.22,1.29-.22,2.37s.22,1.93.43,2.57c.43.86,1.29,1.29,2.37,1.51h2.8c2.37,0,3.88-.22,4.51-.65.43-.42.65-.86.65-1.72h6.46c0,2.58-.64,4.3-1.94,5.17-.86.64-1.73,1.06-2.8,1.29-1.72.42-4.09.42-6.67.42-3.02,0-5.38,0-7.1-.42-2.14-.44-3.44-1.5-4.09-3.44-.64-1.08-.85-2.81-.85-4.74,0-3.66.85-6.24,2.8-7.31.85-.65,2.35-1.08,4.3-1.3,1.5-.21,3.01-.21,4.73-.21,3.01,0,5.38.21,7.1.65,1.51.21,2.59.86,3.23,1.93.65.86,1.07,2.37,1.07,4.09Z"/>
  <path class="st2" d="M679.35,170.8c-.22-1.5-.64-2.37-1.29-3.23-.86-.63-1.95-1.28-3.44-1.5-1.72-.22-4.09-.43-7.11-.43s-5.38,0-6.88.43c-2.6.43-4.1,1.5-4.74,3.44-.21.87-.42,2.59-.42,4.73,0,1.52.21,2.59.21,3.24,0,1.5.42,2.58,1.07,3.44.86.86,1.93,1.5,3.23,1.72,1.72.42,4.09.42,7.1.42h.43c3.67,0,6.24-.22,7.75-.42,2.15-.65,3.44-1.94,3.87-3.88.22-.86.43-2.58.43-4.73,0-1.51-.22-2.59-.22-3.23ZM673.11,176.61c-.21.65-.44,1.06-1.08,1.5-.64.21-2.15.43-4.52.43-1.5,0-2.58,0-3.23-.22-1.29,0-1.94-.65-2.15-1.51-.21-.43-.43-1.29-.43-2.59,0-.85.22-1.49.22-2.14.21-.65.65-1.07,1.07-1.29.65-.43,2.16-.65,4.3-.65h.22c1.29,0,2.37,0,3.02.22,1.28,0,2.14.43,2.37,1.29.21.44.43,1.52.43,2.81,0,1.07,0,1.71-.22,2.15ZM667.51,162.83l6.03-2.16-1.51-3.65-4.52,2.37-3.44,1.93.86,2.38,2.58-.87Z"/>
  <path class="st2" d="M646.85,175.53h4.74v1.29c0,1.29,0,2.38-.22,3.02-.43,1.3-1.29,2.36-2.8,2.8-1.08.42-2.58.42-4.51.42-2.38,0-4.31,0-5.39-.42-1.07-.22-1.72-.65-2.36-1.5-.65-.66-.87-1.52-1.08-2.59v-8.4h-3.24v-4.08h3.24v-4.09h6.23v4.09h10.12v4.08h-10.12v5.61c0,1.28.21,2.14.64,2.37.43.43,1.08.64,2.16.64s1.71-.21,2.14-.64c.22-.22.43-.85.43-1.94v-.64Z"/>
  <path class="st2" d="M627.48,168.64c-.86-1.49-2.37-2.57-4.72-2.8-1.3-.21-3.23-.21-5.18-.21h-1.06c-3.67,0-6.03.21-7.32.65-1.29.65-2.14,1.28-2.59,1.93-.44.65-.64,1.52-.64,2.58h6.03c.22-.43.43-.86.86-1.06.43-.23,1.51-.23,3.67-.23h2.15c1.07,0,1.72.23,2.16.44.43.43.64,1.08.64,2.37v1.93c0-.42-.21-.64-.21-.85-.43-.44-1.08-.86-1.94-1.08-.64,0-1.5-.21-2.79-.21h-.87c-3.22,0-5.37.21-6.67.43-1.29.22-2.15.64-2.8,1.51-.63.64-1.07,1.93-1.07,3.65,0,1.29.21,2.38.65,3.02.65,1.07,1.72,1.94,3.44,2.14,1.07.22,2.58.22,4.72.22h3.66c1.51-.22,2.8-.86,3.45-1.5.22-.42.43-1.08.65-1.72v3h6.24v-11.61c0-.87-.22-1.73-.44-2.59ZM620.39,178.97c-.65.23-1.72.44-3.67.44h-.2c-1.74,0-3.02-.21-3.24-.21-1.29-.23-1.94-.87-1.94-1.73s.44-1.51,1.3-1.72c.64-.22,1.72-.22,3.65-.22h.22c1.71,0,2.79,0,3.22.22,1.29.21,1.94.64,1.94,1.72,0,.86-.43,1.29-1.29,1.5Z"/>
  <path class="st2" d="M593.7,173.81h6.88c0,2.8-.2,4.73-.64,5.59-.43,1.29-1.29,1.94-2.58,2.58-.86.42-1.72.65-2.79.65-1.08.2-2.58.2-4.74.2h-5.6c-3.23,0-5.59,0-7.31-.2-3.23-.44-5.16-1.72-6.02-4.09-.23-1.28-.65-2.58-.65-3.87v-4.53c0-2.79,0-4.73.42-6.02.44-1.71,1.3-3.22,2.8-3.86.86-.64,2.15-1.09,3.44-1.29,1.72-.22,4.3-.43,7.75-.43,4.3,0,7.54.21,9.25.21,2.37.22,4.09,1.08,4.95,2.37,1.07,1.08,1.51,2.8,1.51,5.38v.65h-7.11c0-.65,0-1.08-.22-1.51-.22-.64-.85-.87-1.93-1.07-.65-.22-2.16-.22-4.74-.22-3.44,0-5.59,0-6.23.22-1.29.21-1.94.86-2.37,1.72-.22.65-.43,2.15-.43,4.73,0,1.51.2,2.79.2,3.65.43,1.29,1.3,1.94,2.6,2.15,1.07.21,2.58.21,4.72.21h5.81c1.08-.21,1.95-.42,2.37-.86.43-.64.64-1.29.64-2.36Z"/>
  <path class="st2" d="M549.8,158.74v10.12c-.43-.43-.64-.87-.86-1.08-.43-.64-1.06-1.29-1.93-1.5-.86-.22-1.93-.44-3.01-.65h-2.37c-4.95,0-7.96,1.07-9.04,3.23-.42,1.07-.64,3.01-.64,5.81,0,2.36,0,4.08.43,5.17.43.64.86,1.51,1.72,1.93,1.5.87,4.3,1.51,8.18,1.51.64,0,1.08-.22,1.72-.22s1.29,0,1.71-.22c1.73-.43,2.8-1.07,3.44-1.93.22-.44.43-1.08.64-1.71v3.64h6.03v-24.09h-6.03ZM548.73,177.89c-.64.43-2.15.65-4.73.65h-.22c-1.28,0-2.15,0-3-.22-1.29,0-1.94-.43-2.37-1.29-.22-.42-.22-1.28-.22-2.57,0-1.08,0-1.94.22-2.59.43-.85,1.29-1.29,2.37-1.51.64-.22,1.5-.22,3-.22h.22c1.51,0,2.58,0,3.44.22.86.22,1.5.65,1.93,1.29.22.44.43,1.52.43,2.81,0,1.71-.43,2.8-1.07,3.44Z"/>
  <path class="st2" d="M526.78,168.64c-.86-1.49-2.37-2.57-4.73-2.8-1.29-.21-3.02-.21-5.17-.21h-1.08c-3.66,0-6.03.21-7.1.65-1.29.65-2.37,1.28-2.79,1.93-.43.65-.65,1.52-.65,2.58h6.24c0-.43.23-.86.65-1.06.44-.23,1.73-.23,3.66-.23h2.15c1.07,0,1.94.23,2.37.44.43.43.65,1.08.65,2.37v1.93c-.22-.42-.22-.64-.43-.85-.42-.44-.86-.86-1.72-1.08-.64,0-1.71-.21-3.01-.21h-.87c-3.21,0-5.37.21-6.67.43-1.07.22-2.15.64-2.79,1.51-.65.64-.86,1.93-.86,3.65,0,1.29.21,2.38.43,3.02.64,1.07,1.71,1.94,3.44,2.14,1.08.22,2.8.22,4.95.22h3.45c1.72-.22,2.79-.86,3.44-1.5.22-.42.65-1.08.87-1.72v3h6.02v-11.61c0-.87,0-1.73-.43-2.59ZM519.89,178.97c-.64.23-1.94.44-3.88.44h-.21c-1.73,0-2.8-.21-3.22-.21-1.3-.23-1.94-.87-1.94-1.73s.43-1.51,1.29-1.72c.65-.22,1.94-.22,3.65-.22h.22c1.72,0,2.8,0,3.45.22,1.07.21,1.72.64,1.72,1.72,0,.86-.22,1.29-1.08,1.5Z"/>
  <path class="st2" d="M493.84,158.74v10.12c-.21-.43-.42-.87-.64-1.08-.64-.64-1.29-1.29-2.15-1.5-.64-.22-1.72-.44-3.02-.65h-2.15c-5.16,0-8.17,1.07-9.04,3.23-.64,1.07-.85,3.01-.85,5.81,0,2.36.21,4.08.64,5.17.21.64.86,1.51,1.72,1.93,1.5.87,4.09,1.51,8.18,1.51.43,0,1.07-.22,1.5-.22.87,0,1.51,0,1.95-.22,1.51-.43,2.58-1.07,3.23-1.93.22-.44.64-1.08.87-1.71v3.64h6.01v-24.09h-6.24ZM492.98,177.89c-.64.43-2.35.65-4.95.65-1.29,0-2.36,0-3-.22-1.3,0-2.15-.43-2.38-1.29-.21-.42-.42-1.28-.42-2.57,0-1.08.21-1.94.42-2.59.44-.85,1.08-1.29,2.15-1.51.66-.22,1.73-.22,3.02-.22h.21c1.51,0,2.81,0,3.45.22,1.08.22,1.72.65,2.15,1.29.21.44.21,1.52.21,2.81,0,1.71-.21,2.8-.86,3.44Z"/>
  <path class="st2" d="M414.88,182.84v-16.78h6.03v3.67c.21-.66.43-1.3.64-1.52.86-1.72,2.8-2.58,6.25-2.58,2.58,0,4.51.65,5.38,1.72.85,1.08,1.29,2.58,1.29,4.95v1.08h-5.82v-.21c0-.87-.22-1.52-.43-1.73-.43-.64-1.51-1.07-3.01-1.07-1.71,0-2.81.65-3.44,1.51-.43.65-.65,1.72-.65,3.23v7.74h-6.24Z"/>
  <path class="st2" d="M437.47,177.67h6.45c0,.44.44.87.87,1.29.64.23,2.15.44,4.94.44,2.15,0,3.45-.21,4.09-.44.43-.43.65-.64.65-1.07,0-.86-.65-1.28-1.72-1.51h-6.24c-2.81,0-4.74-.21-6.03-.64-1.95-.65-2.81-2.16-2.81-4.52,0-2.59,1.09-4.3,3.02-4.95,1.72-.44,4.51-.65,8.39-.65,2.79,0,4.73,0,6.45.21,2.15.22,3.44,1.09,4.09,2.59.22.43.22,1.3.22,2.15h-6.45c0-.44-.22-.85-.86-.85-.43-.23-1.72-.23-3.44-.23-2.37,0-3.88,0-4.52.44-.43.21-.66.43-.66.86s.44.85.87,1.07c.43.22,1.5.22,3.22.22h4.53c2.36,0,4.09.21,5.16.43,1.29.42,2.15,1.07,2.58,1.94.43.64.65,1.71.65,3.01,0,1.5-.44,2.79-1.3,3.66-.85.85-2.37,1.5-4.74,1.71-1.71.22-3.87.22-6.66.22-2.59,0-4.53,0-5.81-.22-2.15-.2-3.65-1.07-4.31-2.36-.43-.86-.64-1.72-.64-2.8h0Z"/>
  <polygon class="st2" points="465.23 182.84 465.23 166.06 471.47 166.06 471.47 182.84 465.23 182.84 465.23 182.84"/>
  <rect class="st1" x="465.23" y="158.74" width="6.24" height="4.52"/>
  <path class="st2" d="M399.18,175.53h11.19v-1.72c0-2.58-.43-4.31-1.08-5.6-.86-1.07-1.95-1.93-3.44-2.15-1.51-.22-3.66-.43-6.67-.43-2.8,0-4.74.21-5.81.21-2.37.44-4.09,1.51-4.95,3.45-.43,1.29-.87,3.01-.87,5.38,0,1.08.22,1.94.22,2.59.22,1.49.85,2.58,1.5,3.44.85,1.07,2.16,1.71,3.44,1.94,1.5.2,3.66.42,6.46.42h.43c2.36,0,4.08,0,5.58-.22,2.15-.2,3.66-1.07,4.52-2.36.44-.64.65-1.72.65-3.01h-6.03c-.22.64-.43,1.07-.86,1.29-.65.44-1.72.65-3.87.65h-.43c-1.09,0-1.94-.21-2.58-.21-.87,0-1.51-.23-1.94-.66-.43-.43-.64-1.28-.64-2.37v-.64h5.16ZM394.01,172.09c0-1.29.64-2.15,1.93-2.36.65-.23,1.72-.23,3.23-.23,2.37,0,3.87.23,4.51.65.43.44.65,1.09.65,2.16h-10.33v-.21Z"/>
  <path class="st2" d="M287.06,158.74h7.32v10.55c0,1.29-.22,2.14-.22,2.36,0,1.73.22,3.02.64,3.88.21.64.86,1.08,1.72,1.29,1.08.21,2.79.44,4.95.44,2.8,0,4.73,0,5.81-.23,1.08,0,1.94-.42,2.37-.86.42-.64.64-1.5.64-2.36.22-.64.22-1.29.22-1.94v-13.12h7.31v14.42c0,2.58-.43,4.51-1.07,5.8-1.08,2.17-3.02,3.23-6.03,3.67-.85.2-3.65.2-8.38.42-3.88,0-6.25-.22-7.11-.22-1.07,0-1.93-.2-2.8-.43-2.58-.64-4.3-2.15-4.95-4.3-.43-1.29-.43-3.44-.43-6.46v-12.9h0Z"/>
  <path class="st2" d="M322.99,182.84v-16.78h6.02v3.87c.22-.86.44-1.5.65-1.94.64-.85,1.71-1.71,3.02-1.93,1.07-.43,2.37-.43,4.07-.43,2.37,0,4.32.21,5.6.86,1.07.65,1.94,1.29,2.58,2.37.65,1.07.86,2.57.86,4.95v9.03h-6.24v-8.81c0-1.29-.21-2.38-.86-2.8-.64-.43-2.15-.87-4.09-.87-2.37,0-3.88.43-4.74,1.51-.43.65-.64,1.72-.64,3.23v7.74h-6.25Z"/>
  <polygon class="st2" points="351.18 182.84 351.18 166.06 357.21 166.06 357.21 182.84 351.18 182.84 351.18 182.84"/>
  <polygon class="st2" points="351.18 163.27 351.18 158.74 357.21 158.74 357.21 163.27 351.18 163.27 351.18 163.27"/>
  <polygon class="st2" points="369.04 182.84 360.87 166.06 367.76 166.06 373.14 178.11 378.51 166.06 385.4 166.06 377.22 182.84 369.04 182.84"/>
  <polygon class="st2" points="223.15 182.84 223.15 158.74 230.47 158.74 230.47 176.82 247.04 176.82 247.04 182.84 223.15 182.84 223.15 182.84"/>
  <path class="st2" d="M271.79,168.64c-.65-1.49-2.37-2.57-4.52-2.8-1.51-.21-3.23-.21-5.38-.21h-1.08c-3.65,0-6.01.21-7.1.65-1.29.65-2.16,1.28-2.79,1.93-.22.65-.43,1.52-.64,2.58h6.24c0-.43.22-.86.65-1.06.43-.23,1.71-.23,3.65-.23h2.16c1.29,0,1.93.23,2.36.44.43.43.64,1.08.64,2.37v1.93c-.22-.42-.22-.64-.43-.85-.43-.44-.86-.86-1.73-1.08-.64,0-1.71-.21-3.02-.21h-.85c-3.23,0-5.37.21-6.68.43-1.06.22-1.93.64-2.58,1.51-.64.64-1.06,1.93-1.06,3.65,0,1.29.21,2.38.42,3.02.64,1.07,1.72,1.94,3.44,2.14,1.3.22,2.81.22,4.95.22h3.66c1.5-.22,2.58-.86,3.23-1.5.43-.42.64-1.08.86-1.72v3h6.24v-11.61c0-.87-.22-1.73-.64-2.59ZM264.89,178.97c-.64.23-1.93.44-3.65.44h-.44c-1.71,0-2.79-.21-3.22-.21-1.29-.23-1.94-.87-1.94-1.73s.43-1.51,1.29-1.72c.65-.22,1.94-.22,3.67-.22h.2c1.73,0,2.8,0,3.45.22,1.29.21,1.94.64,1.94,1.72,0,.86-.43,1.29-1.29,1.5Z"/>
  <path class="st1" d="M39.17,35.23v79.34c0,43.8,35.53,79.33,79.33,79.33s79.34-35.53,79.34-79.33V35.23H39.17Z"/>
  <path class="st4" d="M47.1,43.16v71.41c0,39.36,32.03,71.39,71.4,71.39s71.4-32.03,71.4-71.39V43.16H47.1Z"/>
  <path class="st3" d="M55.04,51.1v63.47c0,34.99,28.46,63.48,63.46,63.48s63.47-28.48,63.47-63.48v-63.47H55.04Z"/>
  <path class="st4" d="M158.18,114.57c0,21.9-17.76,39.67-39.67,39.67s-39.67-17.76-39.67-39.67,17.76-39.67,39.67-39.67,39.67,17.76,39.67,39.67Z"/>
  <path class="st5" d="M127.21,94.48c-2.36,1.98-5.39,3.17-8.71,3.17-3.02,0-6.34-1.5-8.59-3.17,0,0-7.24-6.85-9.28-8.92-12.91-12.93-34.38-34.46-34.38-34.46h-11.21v11.22l35.44,35.44,11.83,11.93c5.08,4.76,8.26,11.53,8.26,19.05v48.77c2.61.33,5.25.53,7.94.53s5.33-.2,7.93-.53v-48.77c0-7.52,3.18-14.3,8.27-19.05l47.27-47.37v-11.22h-11.22s-21.41,21.48-34.37,34.46c-1.92,1.94-6.47,6.51-7.03,7.06l-2.14,1.86Z"/>
</svg>