<?xml version="1.0" encoding="UTF-8"?>
<svg id="Layer_1" xmlns="http://www.w3.org/2000/svg" version="1.1" viewBox="0 0 792 227.5">
  <!-- Generator: Adobe Illustrator 29.7.1, SVG Export Plug-In . SVG Version: 2.1.1 Build 8)  -->
  <defs>
    <style>
      .st0 {
        fill: none;
      }

      .st1 {
        fill: #002a4a;
      }

      .st2 {
        fill: #01294a;
      }
    </style>
  </defs>
  <rect class="st0" x="-45.05" y="-46.52" width="883.46" height="316.48"/>
  <g>
    <path class="st2" d="M167.9,35.58h-14.93v-7.32c0-2.88-2.33-5.21-5.21-5.21h-.27c-2.88,0-5.21,2.33-5.21,5.21v7.32h-48.62v-7.32c0-2.88-2.33-5.21-5.21-5.21h-.27c-2.88,0-5.21,2.33-5.21,5.21v7.32h-14.97c-9.79,0-17.73,7.94-17.73,17.73v115.51c0,9.79,7.94,17.73,17.73,17.73h99.92c9.79,0,17.73-7.94,17.73-17.73V53.3c0-9.79-7.94-17.73-17.73-17.73h-.02ZM175.6,169.76c0,3.47-2.81,6.28-6.28,6.28h-102.45c-3.47,0-6.28-2.81-6.28-6.28v-93.38h115.01v93.38ZM175.6,65.96H60.59v-13.92c0-3.47,2.81-6.28,6.28-6.28h16.08v7.27c0,2.88,2.33,5.21,5.21,5.21h.27c2.88,0,5.21-2.33,5.21-5.21v-7.27h48.62v7.27c0,2.88,2.33,5.21,5.21,5.21h.27c2.88,0,5.21-2.33,5.21-5.21v-7.27h16.35c3.47,0,6.28,2.81,6.28,6.28v13.92h.02Z"/>
    <path class="st1" d="M118.01,89.97c-21.26,0-38.49,17.03-38.49,38.03s17.23,38.03,38.49,38.03,38.49-17.03,38.49-38.03-17.23-38.03-38.49-38.03ZM117.83,156.61c-15.94,0-28.86-12.83-28.86-28.66s12.92-28.66,28.86-28.66,28.86,12.83,28.86,28.66-12.92,28.66-28.86,28.66Z"/>
    <path class="st1" d="M113.88,132.64l17-16.86s2.84-1.81,5.4.75.99,5.35.99,5.35l-21.42,21.32s-2.42,2.14-4.56,0l-13.08-13.08s-1.57-2.18,1.53-5.28c2.56-2.56,5.07-1.27,5.07-1.27l9.06,9.06h0Z"/>
  </g>
  <g>
    <path class="st1" d="M232.85,131.91c0,7.93.08,10.96.67,14.67h-18.13c.59-3.71.76-7.08.76-14.42v-43.68c0-5.57-.17-8.35-.67-12.31,3.46.17,5.82.25,12.31.25h24.37c7.42,0,10.2-.08,14.17-.59v16.02c-3.71-.42-7-.59-14.08-.59h-19.4v13.83h15.85c6.58,0,9.78-.17,13.49-.59v15.6c-3.71-.42-7.08-.59-13.49-.59h-15.85v12.4h0Z"/>
    <path class="st1" d="M290.27,76.43c-.51,3.54-.67,7-.67,12.73v44.69c0,5.06.17,8.26.67,12.73h-17.62c.51-3.8.67-6.66.67-12.73v-44.69c0-5.99-.17-9.53-.67-12.73,0,0,17.62,0,17.62,0Z"/>
    <path class="st1" d="M352.16,95.15c-.51,3.96-.67,7.51-.67,12.65v26.06c0,5.82.17,9.28.67,12.65h-16.78v-3.63c0-.42,0-1.69.08-2.28-5.57,5.23-10.37,7.25-17.54,7.25-5.65,0-10.2-1.6-13.41-4.72-3.37-3.37-4.81-7.51-4.81-14.17v-21.17c0-4.89-.25-9.11-.67-12.65h17.54c-.51,4.05-.68,7.59-.68,12.65v17.29c0,3.46.34,4.98,1.35,6.32,1.18,1.52,3.04,2.36,5.48,2.36,4.64,0,9.36-3.29,12.65-8.69v-17.29c0-4.72-.17-8.26-.67-12.65h17.46v.02Z"/>
    <path class="st1" d="M395.84,146.59c-1.1-2.53-2.7-5.31-4.22-7.67l-5.23-8.1-5.31,8.35c-1.35,2.02-2.78,4.72-4.05,7.42h-19.73c2.19-2.53,4.64-5.65,6.24-7.93l13.66-19.23-12.06-16.87c-.42-.59-2.36-3.12-5.73-7.42l12.26,6.71c7.01,3.85,14.26,7.62,14.26,7.62l4.68-7.17c1.86-2.78,28.49-42.05,29.33-44.24l.17,31.01c-1.69,2.02-5.49,5.01-12.47,13.49l-11.97,16.87,13.49,19.06c1.69,2.36,3.46,4.64,6.24,8.1h-19.56,0Z"/>
    <path class="st1" d="M438.25,95.15c-.51,3.46-.67,6.83-.67,12.73v25.97c0,4.55.25,9.11.67,12.73h-17.62c.51-4.13.67-7.34.67-12.73v-25.97c0-5.48-.17-8.94-.67-12.73,0,0,17.62,0,17.62,0ZM438,76.43v12.65h-17.12v-12.65h17.12Z"/>
    <path class="st1" d="M445,120.78c0-16.87,10.79-27.58,27.83-27.58s27.83,10.71,27.83,27.41-11.13,27.91-27.91,27.91-27.74-10.79-27.74-27.74h0ZM461.11,120.7c0,9.36,4.38,15.01,11.72,15.01s11.55-5.48,11.55-14.84-4.3-15.01-11.47-15.01-11.81,5.57-11.81,14.84h.01Z"/>
    <path class="st1" d="M578.91,146.59c-.51-2.7-1.52-6.16-4.13-13.16-2.7-7.34-3.71-9.28-5.82-11.13-1.77-1.6-3.88-2.28-6.58-2.28h-8.6v13.83c0,5.73.17,8.85.68,12.73h-18.13c.51-3.88.67-6.41.67-12.65v-45.37c0-5.23-.17-8.35-.67-12.4,3.71.17,6.83.25,12.57.25h21.92c13.66,0,21.59,7.08,21.59,19.23,0,5.99-1.69,10.71-4.98,13.83-2.11,1.94-3.88,2.87-8.01,4.22,4.3,1.35,6.24,3.29,8.94,9.28,1.26,2.7,2.45,5.57,6.24,14.67.93,2.36,1.94,4.47,4.05,8.94h-19.74ZM566.93,105.6c4.98,0,8.01-3.04,8.01-7.84s-2.7-7.17-7.93-7.17h-13.24v15.01h13.16Z"/>
    <path class="st1" d="M621.06,123.73c.34,3.04.93,4.55,2.19,6.24,2.02,2.53,5.57,3.96,9.87,3.96,6.49,0,10.37-2.87,10.37-7.59,0-2.61-1.35-4.89-3.54-5.9-1.77-.84-3.88-1.43-12.65-3.46-7.76-1.69-10.46-2.7-13.58-4.89-5.31-3.71-8.18-9.36-8.18-16.19,0-12.99,10.46-21.17,27.07-21.17,10.71,0,18.89,3.29,23.44,9.61,2.11,2.78,3.12,5.31,4.22,10.12l-17.88,1.94c-1.01-5.48-4.05-7.76-10.46-7.76-5.14,0-8.94,2.78-8.94,6.66,0,2.36,1.26,4.13,3.96,5.4,1.13.51,5.01,1.43,11.64,2.78,6.41,1.35,10.46,2.78,13.66,4.81,6.07,3.79,9.11,9.45,9.11,17.2,0,6.32-2.02,11.72-5.9,15.52-4.89,4.72-12.31,7.17-22.18,7.17-7.17,0-14.25-1.52-18.8-4.13-4.22-2.36-7.34-5.99-9.11-10.79-.84-2.02-1.26-3.96-1.86-7.84l17.54-1.69h.01Z"/>
    <path class="st1" d="M699.4,126.1c.45,1.52.98,3.46,1.6,5.82,1.01-3.71,1.18-4.22,1.6-5.82l12.23-40.56c1.1-3.88,1.69-6.24,1.94-9.11h19.82c-1.18,2.53-1.94,4.47-4.05,10.29l-17.88,50.77c-1.43,4.13-2.28,7-2.7,9.11h-21.93c-.42-2.19-1.26-5.06-2.7-9.11l-17.96-50.77c-1.69-4.89-2.53-7-3.96-10.29h19.73c.34,2.7,1.1,5.99,2.02,9.11l12.23,40.56h.01Z"/>
  </g>
</svg>